<?xml version="1.0" encoding="utf-8"?>
<!-- Svg Vector Icons : http://www.onlinewebfonts.com/icon -->
<!DOCTYPE svg PUBLIC "-//W3C//DTD SVG 1.1//EN" "http://www.w3.org/Graphics/SVG/1.1/DTD/svg11.dtd">
<svg version="1.1" xmlns="http://www.w3.org/2000/svg" xmlns:xlink="http://www.w3.org/1999/xlink" x="0px" y="0px" viewBox="0 0 1000 1000" enable-background="new 0 0 1000 1000" xml:space="preserve">
<metadata> Svg Vector Icons : http://www.onlinewebfonts.com/icon </metadata>
<g><g><g><path d="M155.4,804.7c14.7,0,26.7,12,26.7,26.7c0,14.7-11.9,26.6-26.7,26.6c-14.7,0-26.7-11.9-26.7-26.6C128.7,816.7,140.6,804.7,155.4,804.7z"/><path d="M155.4,566.9c14.7,0,26.7,12,26.7,26.7c0,14.7-11.9,26.6-26.7,26.6c-14.7,0-26.7-11.9-26.7-26.6C128.7,578.8,140.6,566.9,155.4,566.9z"/><circle cx="155.4" cy="355.7" r="26.7"/><path d="M112.4,905.6c-20.4,0-37.1-16.7-37.1-37.1v-74.2c0-20.5,16.7-37.1,37.1-37.1h343.9c0-0.1,0-0.1,0-0.2c0-31.3,5.6-61.2,15.3-89.3H112.4c-20.4,0-37.1-16.7-37.1-37.2v-74.1c0-20.5,16.7-37.1,37.1-37.1H596c39.3-22.1,84.6-34.8,132.9-34.8c42.3,0,82.2,10,117.9,27.2l-11.9-69c12.1-13.2,19.7-30.6,19.7-49.9v-74.2c0-0.8-0.4-1.5-0.4-2.3l-74-269.5C777.8,26.6,757.5,10,734.8,10H158c-22.7,0-43.1,16.6-45.3,36.9l-74,269.5c0,0.8-0.4,1.4-0.4,2.3v74.2c0,19.3,7.6,36.7,19.7,49.9L38.6,554.2c0,0.8-0.4,1.5-0.4,2.3v74.2c0,19.2,7.6,36.7,19.7,49.9L38.6,792c0,0.8-0.4,1.5-0.4,2.3v74.2c0,40.9,33.3,74.2,74.2,74.2h417.4c-10.8-11.5-20.6-23.8-29.2-37.1L112.4,905.6L112.4,905.6z M75.4,318.6c0-20.5,16.7-37.1,37.1-37.1h667.9c20.4,0,37.1,16.7,37.1,37.1v74.2c0,20.5-16.7,37.1-37.1,37.1H112.4c-20.4,0-37.1-16.7-37.1-37.1L75.4,318.6L75.4,318.6z"/><path d="M728.8,524.2c-128.6,0-232.9,104.2-232.9,232.9c0,128.6,104.3,232.9,232.9,232.9c128.6,0,232.9-104.3,232.9-232.9C961.7,628.5,857.5,524.2,728.8,524.2z M845.3,792h-81.6v81.5h-69.8V792h-81.6v-69.9h81.6v-81.5h69.8v81.5h81.6V792z"/></g></g><g></g><g></g><g></g><g></g><g></g><g></g><g></g><g></g><g></g><g></g><g></g><g></g><g></g><g></g><g></g></g>
</svg>